<svg xmlns="http://www.w3.org/2000/svg" viewBox="0 0 53.56 36.6">
  <defs>
    <style>
      .cls-1 {
        fill: #1d4b9b; /* Was: #fff; */
      }
    </style>
  </defs>
  <title>The Open University (ou-logo)</title>
  <desc>https://www.open.ac.uk</desc>
  <g id="Layer_2" data-name="Layer 2">
    <g id="Layer_1-2" data-name="Layer 1">
      <path class="cls-1" d="M40.45,10.67c-.79,0-1.48.13-1.48,1a2.27,2.27,0,0,0,.21,1h2.54a2.53,2.53,0,0,0,.2-1C41.92,10.8,41.24,10.67,40.45,10.67ZM38.25,13l.25-.09a2.74,2.74,0,0,1-.36-1.29c0-1.5.93-1.86,2.31-1.86s2.31.43,2.31,1.93a2.35,2.35,0,0,1-.24,1H44v.91H38.25Zm4.4,20.87v.94H37.58v1.64h-.85V32.2h.85v1.66Zm-3.13-5.21c-.41,0-.55.33-.55.74a2.55,2.55,0,0,0,.21,1.06h3.46v.91H36.74v-.91h1.68a3,3,0,0,1-.28-1.17c0-1.1.53-1.54,1.42-1.54h3.1v.91Zm.17-10.23c1.23,0,2.22-.2,2.22-1.44s-1-1.42-2.22-1.42-2.22.2-2.22,1.43,1,1.43,2.22,1.43Zm0,1c-1.6,0-3.08-.47-3.08-2.41s1.47-2.4,3.08-2.4,3.07.46,3.07,2.4-1.47,2.41-3.07,2.41ZM39.18,3.22h3.46v.91h-4.4V3.52l.25-.09a2.72,2.72,0,0,1-.36-1.33c0-1.09.53-1.54,1.41-1.54h3.1v.91H39.53c-.58,0-.56.62-.56.72A2.43,2.43,0,0,0,39.18,3.22ZM40.09,8V6.08c-.58,0-1.2.15-1.2.88s.5,1,1.2,1Zm.75,0c.77-.07,1.07-.4,1.07-1.29a4.21,4.21,0,0,0-.25-1.34h.8a4.08,4.08,0,0,1,.29,1.57c0,1.52-.92,2-2.31,2s-2.31-.53-2.31-2,1.13-1.78,2.35-1.78h.35V8Zm-.71,17.94V24c-.59,0-1.2.15-1.2.89s.5,1,1.2,1Zm.71,0c.77-.07,1.07-.41,1.07-1.29a4.21,4.21,0,0,0-.25-1.34h.8a4.1,4.1,0,0,1,.29,1.57c0,1.52-.93,2-2.31,2s-2.31-.53-2.31-2,1.13-1.78,2.35-1.78h.35v2.85Zm5.41,6h3.86a2,2,0,0,1,2.2,2.19,2,2,0,0,1-2.2,2.18H46.25v-.9H50c1.33,0,1.43-.79,1.43-1.28s-.1-1.28-1.43-1.28H46.25Zm.25-6.28a.6.6,0,1,1-.6.6A.59.59,0,0,1,46.5,25.63Zm4.83,1H47.78v-.9h3.47c.16,0,.23,0,.23-.25v-.15h.8a3.49,3.49,0,0,1,0,.42C52.29,26.32,52,26.68,51.33,26.68Zm0-17.52H47.78v-.9h3.47c.16,0,.23,0,.23-.25V7.85h.8a3.26,3.26,0,0,1,0,.42C52.29,8.8,52,9.16,51.33,9.16ZM47.78,21.76v-1l4.51,1.71v.74L47.78,25V24l3.42-1.1Zm1.84-4.07c-.58,0-1.2.15-1.2.87s.5,1,1.2,1Zm.75,1.88c.77-.07,1.07-.4,1.07-1.26A4,4,0,0,0,51.2,17H52a3.88,3.88,0,0,1,.29,1.53c0,1.48-.92,2-2.31,2s-2.31-.52-2.31-2S48.8,16.79,50,16.8h.35Zm-1.8-5.95a3.34,3.34,0,0,0,0,.61,2,2,0,0,0,.18.85h3.48V16H47.78v-.6L48,15.3a2.06,2.06,0,0,1-.35-1.09,2.87,2.87,0,0,1,0-.58Zm2.28-3.73c.7,0,1.44.44,1.44,1.78A4.42,4.42,0,0,1,52,13.05h-.85a4.15,4.15,0,0,0,.26-1.39c0-.7-.3-.9-.6-.9s-.49.1-.55.78c-.11,1.29-.6,1.55-1.25,1.55s-1.4-.41-1.4-1.67a3.29,3.29,0,0,1,.26-1.33h.83a4,4,0,0,0-.26,1.34c0,.67.25.81.56.81s.39-.13.45-.79C49.63,10.18,50.08,9.89,50.85,9.89Zm1.38-5.27a4.54,4.54,0,0,1,.06.83,1.14,1.14,0,0,1-1.23,1.26H48.56v.76h-.73l0-.76H46.67l-.13-.89h1.23V4.62h.77v1.2H51c.37,0,.51-.2.51-.65a5,5,0,0,0,0-.56ZM51,2,47.78.94V0l5.78,2.23v.85L52,2.46,47.78,4V3ZM48.72,30.12h3.47V31h-4.4v-.6l.25-.09a2.61,2.61,0,0,1-.36-1.3c0-1.07.53-1.51,1.41-1.51h3.1v.89H49.07c-.58,0-.56.6-.56.7A2.33,2.33,0,0,0,48.72,30.12ZM46.5,8a.6.6,0,1,1-.6.6A.59.59,0,0,1,46.5,8ZM29.2.25H1.86A2,2,0,0,0,0,1.95V21.76C0,30.46,6.93,36.6,15.47,36.6s15.47-6.14,15.47-14.84V2A1.93,1.93,0,0,0,29.2.25ZM13.48,18.13A7,7,0,0,1,4.9,13.19,7,7,0,0,1,10,4.7a7,7,0,0,1,8.59,4.94A7,7,0,0,1,13.48,18.13Z"
      />
    </g>
  </g>
</svg>
